<svg xmlns="http://www.w3.org/2000/svg" xmlns:xlink="http://www.w3.org/1999/xlink" width="40" zoomAndPan="magnify" viewBox="0 0 30 30.000001" height="40" preserveAspectRatio="xMidYMid meet" version="1.0"><defs><clipPath id="e81e0529a8"><path d="M 0.484375 4 L 25 4 L 25 29 L 0.484375 29 Z M 0.484375 4 " clip-rule="nonzero"/></clipPath><clipPath id="3f94c0a3fc"><path d="M 11 0 L 29.515625 0 L 29.515625 19 L 11 19 Z M 11 0 " clip-rule="nonzero"/></clipPath></defs><g clip-path="url(#e81e0529a8)"><path fill="#000000" d="M 23.351562 10.726562 C 22.957031 10.726562 22.636719 11.046875 22.636719 11.441406 L 22.636719 24.519531 C 22.636719 25.902344 21.511719 27.027344 20.128906 27.027344 L 4.421875 27.027344 C 3.042969 27.027344 1.917969 25.902344 1.917969 24.519531 L 1.917969 8.816406 C 1.917969 7.433594 3.042969 6.308594 4.421875 6.308594 L 20.128906 6.308594 C 20.523438 6.308594 20.84375 5.988281 20.84375 5.59375 C 20.84375 5.195312 20.523438 4.875 20.128906 4.875 L 4.421875 4.875 C 2.25 4.875 0.484375 6.644531 0.484375 8.816406 L 0.484375 24.519531 C 0.484375 26.691406 2.25 28.460938 4.421875 28.460938 L 20.128906 28.460938 C 22.300781 28.460938 24.066406 26.691406 24.066406 24.519531 L 24.066406 11.441406 C 24.066406 11.046875 23.746094 10.726562 23.351562 10.726562 Z M 23.351562 10.726562 " fill-opacity="1" fill-rule="nonzero"/></g><g clip-path="url(#3f94c0a3fc)"><path fill="#000000" d="M 28.867188 1.21875 C 28.003906 0.355469 26.597656 0.355469 25.738281 1.21875 L 13.46875 13.488281 C 13.453125 13.503906 13.265625 13.695312 13.21875 13.804688 L 11.519531 17.621094 C 11.398438 17.890625 11.457031 18.210938 11.667969 18.417969 C 11.804688 18.554688 11.988281 18.628906 12.175781 18.628906 C 12.273438 18.628906 12.371094 18.609375 12.464844 18.566406 L 16.28125 16.867188 C 16.390625 16.820312 16.582031 16.636719 16.597656 16.617188 L 28.867188 4.351562 C 29.285156 3.933594 29.515625 3.375 29.515625 2.785156 C 29.515625 2.195312 29.285156 1.636719 28.867188 1.21875 Z M 27.855469 3.335938 L 15.585938 15.605469 C 15.582031 15.609375 15.582031 15.609375 15.582031 15.613281 L 13.585938 16.5 L 14.472656 14.507812 C 14.476562 14.503906 14.480469 14.503906 14.480469 14.5 L 26.75 2.234375 C 27.042969 1.9375 27.558594 1.9375 27.855469 2.234375 C 28.003906 2.378906 28.082031 2.574219 28.082031 2.785156 C 28.082031 2.992188 28.003906 3.191406 27.855469 3.335938 Z M 27.855469 3.335938 " fill-opacity="1" fill-rule="nonzero"/></g></svg>